<?xml version="1.0" ?><svg id="Layer_1" style="enable-background:new 0 0 52 52;" version="1.1" viewBox="0 0 52 52" xml:space="preserve" xmlns="http://www.w3.org/2000/svg" xmlns:xlink="http://www.w3.org/1999/xlink"><style type="text/css">
	.st0{fill:#231F20;}
</style><g><g><path class="st0" d="M21.5782852,10.3674936c1.2400417-0.0005598,2.4800835-0.0011196,3.7201252-0.0016794    c0.7355385-0.0003319,2.7315521-0.3483133,3.2569904,0.1810932c0.3793411,0.3822079,0.1463146,2.7191763,0.1569691,3.2789068    c0.0106888,0.561573-0.1145077,1.4244776,0.0048904,1.9697609c-0.0044212,0.2188272-0.0088425,0.4376554-0.0132637,0.6564817    c0.6250477,0.0094376,0.6835594,0.0157299,0.1755371,0.0188751c-1.1189232,0.0623741-2.2506409,0.0349121-3.3712139,0.0522938    c-0.5157242,0.0079994-3.4013271,0.3998852-3.7083359,0.0575218c0.3247299,0.3621273,0.4035797-1.0150986,0.4075222-1.1579342    c0.0153694-0.5568781,0.0307388-1.1137562,0.0461082-1.6706343c0.0368881-1.3365088,0.0737743-2.6730165,0.1106625-4.0095243    c0.0399742-1.4483862-2.2100544-1.4473352-2.25,0c-0.0553303,2.0047617-0.1106625,4.0095243-0.1659927,6.014286    c-0.0305977,1.1086311-0.2396374,2.4276657,1.0045948,2.9363346c1.3995819,0.5721779,3.7527676,0.0923996,5.2296848,0.0694904    c1.1937447-0.0185165,3.2731438,0.4175377,4.2456684-0.4803295c0.9124107-0.8423653,0.5518169-2.6854019,0.5432129-3.8000679    c-0.0117054-1.5163822,0.2325382-3.7853918-0.3227863-5.2280102c-0.4610481-1.197711-1.5399399-1.1402636-2.6447029-1.1397648    c-2.1418896,0.0009661-4.2837791,0.0019331-6.4256706,0.0029001    C20.1305466,8.1181469,20.1280918,10.3681479,21.5782852,10.3674936L21.5782852,10.3674936z"/></g><g><path class="st0" d="M35.8278809,27.3316059c4.7568321-0.0409069,9.5136604-0.0818157,14.2704887-0.1227226    c-0.375-0.375-0.75-0.75-1.125-1.125c0.0414429,4.0355129,0.0828819,8.0710239,0.1243248,12.1065388    c0.056797,5.5308037,0.1310806,10.379631-7.1229591,10.6546135c-7.9579277,0.3016624-15.9839725,0.0178604-23.9484215,0.0217247    c-4.2928247,0.0020828-9.5419531,0.9958687-12.3579445-2.6046219c-2.7183428-3.4756393-2.5624075-7.7464485-2.5704005-11.921402    C3.0823939,26.2059612,3.0668194,18.0711861,3.051245,9.936409C3.0470426,7.741477,2.4525518,5.6699805,4.0526171,4.0592709    c1.5901256-1.6007044,3.7493858-1.0641196,5.9181986-1.1047766c4.2534695-0.0797367,8.5075989-0.1214294,12.7618237-0.1237001    c2.6265736-0.0014021,9.9826241-1.2197591,11.3033981,1.6215956c0.6222763,1.3386965-0.0182762,4.4836988-0.0240288,5.8950119    c-0.008007,1.965004-0.0160179,3.930007-0.024025,5.8950109c-0.0317497,7.7889481-0.3619537,15.6397152-0.0804482,23.4230042    c0.1768379,4.8893242,1.621563,9.5527534,6.7625313,10.9496727c1.3991165,0.3801689,1.9960861-1.7897758,0.5981407-2.1696281    c-6.1882248-1.6814804-5.122139-9.651619-5.1023064-14.518013c0.0173531-4.2575092,0.0347061-8.5150185,0.0520592-12.7725258    c0.0160179-3.9300079,0.0320358-7.8600149,0.0480537-11.7900229c0.0075569-1.8543549,1.0611496-6.7123313-0.3647614-8.1124887    c-1.0373077-1.0185721-3.0563354-0.6045309-4.3331776-0.6199483c-4.2538872-0.0513642-8.5082417-0.0646779-12.7623653-0.0385706    c-3.9268541,0.0240988-7.8535872,0.081202-11.7794819,0.1713045C5.5104737,0.799984,2.3901432,0.2669868,1.1929086,1.6583014    C0.0428983,2.9947364,0.7945648,6.4472346,0.7975071,7.9840631c0.0080987,4.2300835,0.0161974,8.4601679,0.0242961,12.6902514    s0.0161974,8.4601669,0.0242961,12.6902485c0.0062158,3.2465935-0.4724808,6.952877,0.663585,10.0737228    c1.4892719,4.0911255,3.511318,7.4721069,7.9038582,7.6826515c7.9324675,0.3802147,15.9814558-0.0077515,23.9243622-0.0116043    c4.8060684-0.0023308,14.124485,1.8599091,17.1277237-3.2558632c1.3390083-2.2808876,0.9270515-5.2822418,0.9011917-7.8005066    c-0.0478172-4.6563606-0.0956345-9.3127193-0.1434517-13.96908c-0.0062027-0.6042042-0.5103722-1.1302872-1.125-1.125    c-4.7568283,0.0409069-9.5136566,0.0818157-14.2704887,0.1227226    C34.3807564,25.0940514,34.377285,27.3440819,35.8278809,27.3316059L35.8278809,27.3316059z"/></g><g><path class="st0" d="M8.7031708,11.741396c2.083334,0,4.166667,0,6.25,0c1.4477673,0,1.4501667-2.25,0-2.25    c-2.083333,0-4.166666,0-6.25,0C7.2554035,9.491396,7.2530055,11.741396,8.7031708,11.741396L8.7031708,11.741396z"/></g><g><path class="st0" d="M9.2053328,17.3932877c1.6769991-0.1208153,3.3417206-0.0753326,5.0095415,0.1368427    c1.432519,0.1822395,1.4192314-2.0694513,0-2.250001c-1.6679029-0.2121849-3.3326254-0.2576504-5.0095415-0.1368418    C7.7695112,15.2467279,7.7581677,17.4975452,9.2053328,17.3932877L9.2053328,17.3932877z"/></g><g><path class="st0" d="M8.7079401,23.2412243c6.3320799,0.2412415,12.6641588,0.4824829,18.9962387,0.7237244    c1.4480438,0.0551682,1.4456825-2.1949215,0-2.25c-6.3320789-0.2412415-12.6641579-0.4824829-18.9962387-0.7237244    C7.2598977,20.9360561,7.2622581,23.1861458,8.7079401,23.2412243L8.7079401,23.2412243z"/></g><g><path class="st0" d="M8.9531708,30.866396c6.083334,0,12.1666679,0,18.25,0c1.4477673,0,1.4501667-2.25,0-2.25    c-6.0833321,0-12.166666,0-18.25,0C7.5054035,28.616396,7.5030055,30.866396,8.9531708,30.866396L8.9531708,30.866396z"/></g><g><path class="st0" d="M8.9540997,38.0286674c7.2554073-0.1603775,14.5035191-0.0772514,21.7532959,0.2494774    c1.4476376,0.0652428,1.4444103-2.1849022,0-2.25c-7.2498207-0.3267326-14.4979324-0.4098549-21.7532959-0.2494774    C7.5084171,35.810627,7.5032587,38.0607414,8.9540997,38.0286674L8.9540997,38.0286674z"/></g></g></svg>